<svg width="360" height="96" viewBox="0 0 360 96" fill="none" xmlns="http://www.w3.org/2000/svg">
  <defs>
    <linearGradient id="mw" x1="18" y1="20" x2="78" y2="77" gradientUnits="userSpaceOnUse">
      <stop stop-color="#9DEDE2"/><stop offset="0.52" stop-color="#9F8CFF"/><stop offset="1" stop-color="#FFB38B"/>
    </linearGradient>
    <mask id="cut"><rect width="96" height="96" fill="white"/><path d="M27 61L37 47L47 61L59 45L70 60" stroke="black" stroke-width="7" stroke-linecap="round" stroke-linejoin="round"/><circle cx="71" cy="31" r="2.8" fill="black"/><circle cx="78" cy="39" r="1.6" fill="black"/></mask>
  </defs>
  <path d="M21 69C12.7 69 6 62.3 6 54C6 46.5 11.5 40.3 18.7 39.2C20.6 26.1 31.8 16 45.5 16C56.8 16 66.5 22.9 70.6 32.7C81.4 33.5 90 42.5 90 53.5C90 64.9 80.9 69 70 69H21Z" fill="url(#mw)" mask="url(#cut)"/>
  <path d="M16 74C34 87 65 84 82 66" stroke="#D9D3FF" stroke-width="2.5" stroke-linecap="round" stroke-dasharray="2 6"/><circle cx="82" cy="66" r="3.5" fill="#FFF3D7"/>
  <text x="110" y="57" fill="#F7F5FF" font-family="Arial, Helvetica, sans-serif" font-size="27" font-weight="700" letter-spacing="7">MINDWEATHER</text>
  <text x="112" y="76" fill="#A8A4BD" font-family="Arial, Helvetica, sans-serif" font-size="10" font-weight="500" letter-spacing="1.8">STUDY FOR THE BRAIN YOU HAVE TODAY</text>
</svg>
